<?xml version="1.0" encoding="UTF-8"?><svg id="a" xmlns="http://www.w3.org/2000/svg" viewBox="0 0 218.73 278.49"><defs><style>.b{fill:#ff7a00;}.c{fill:#19222f;}</style></defs><g><path class="c" d="M31.74,169.02c0-42.93,34.81-77.74,77.74-77.74,19.32,0,36.86,7.22,50.45,18.9v-.81h41.06c-19.52-29.93-53.11-49.83-91.5-49.83C49.01,59.54,0,108.55,0,169.02c0,16.91,4.15,32.74,11,47.03l24.46-24.46c-2.19-7.19-3.72-14.67-3.72-22.57Z"/><path class="c" d="M109.48,246.75c-12.77,0-24.64-3.37-35.27-8.83l-23.3,23.3c16.97,10.8,36.97,17.27,58.57,17.27,45.21,0,83.98-27.42,100.69-66.52h-35.95c-13.93,20.95-37.7,34.78-64.73,34.78Z"/><path class="c" d="M186.99,171.23h-45.73l-29.18,29.18v.17h101.7c2.84-9.37,4.74-19.1,4.95-29.35h-31.74Z"/><path class="b" d="M69.61,222.17l29.7-29.7,12.78-12.78,8.47-8.47,11.44-11.44,2.91-2.91h82.82c-.6-5.39-1.52-10.68-2.78-15.84-1.33-5.46-3.03-10.76-5.25-15.83H46.53v31.67h46.13l-43.54,43.54-6.9,6.9-23.24,23.24c.2,.3,.47,.53,.68,.82,2.33,3.34,5.07,6.33,7.74,9.39l10.34,10.34c.26,.23,.53,.43,.79,.65,.27,.23,.55,.45,.82,.68l22.44-22.44,7.82-7.82Z"/></g><path class="c" d="M191.61,97.54C209.74,48.77,175.53,0,107.7,0,48.22,0,7.26,49.52,29.27,95.33l23.07-19.7c-7.28-22.63,18.25-53.44,56.06-53.45,42.86-.01,65.31,30.33,59.97,54.7l23.26,20.68Z"/></svg>