<?xml version="1.0" encoding="UTF-8"?><svg id="a" xmlns="http://www.w3.org/2000/svg" viewBox="0 0 697.64 278.49"><defs><style>.b{fill:#ff7a00;}.c{fill:#19222f;}</style></defs><g><path class="c" d="M31.74,169.02c0-42.93,34.81-77.74,77.74-77.74,19.32,0,36.86,7.22,50.45,18.9v-.81h41.06c-19.52-29.93-53.11-49.83-91.5-49.83C49.01,59.54,0,108.55,0,169.02c0,16.91,4.15,32.74,11,47.03l24.46-24.46c-2.19-7.19-3.72-14.67-3.72-22.57Z"/><path class="c" d="M109.48,246.75c-12.77,0-24.64-3.37-35.27-8.83l-23.3,23.3c16.97,10.8,36.97,17.27,58.57,17.27,45.21,0,83.98-27.42,100.69-66.52h-35.95c-13.93,20.95-37.7,34.78-64.73,34.78Z"/><path class="c" d="M186.99,171.23h-45.73l-29.18,29.18v.17h101.7c2.84-9.37,4.74-19.1,4.95-29.35h-31.74Z"/><path class="b" d="M69.61,222.17l29.7-29.7,12.78-12.78,8.47-8.47,11.44-11.44,2.91-2.91h82.82c-.6-5.39-1.52-10.68-2.78-15.84-1.33-5.46-3.03-10.76-5.25-15.83H46.53v31.67h46.13l-43.54,43.54-6.9,6.9-23.24,23.24c.2,.3,.47,.53,.68,.82,2.33,3.34,5.07,6.33,7.74,9.39l10.34,10.34c.26,.23,.53,.43,.79,.65,.27,.23,.55,.45,.82,.68l22.44-22.44,7.82-7.82Z"/></g><path class="c" d="M191.61,97.54C209.74,48.77,175.53,0,107.7,0,48.22,0,7.26,49.52,29.27,95.33l23.07-19.7c-7.28-22.63,18.25-53.44,56.06-53.45,42.86-.01,65.31,30.33,59.97,54.7l23.26,20.68Z"/><g><path class="c" d="M268.8,182.3v-41.16c0-26.03,8.78-42.52,36.77-42.52s35.86,14.53,35.86,35.86v7.87h-26.48v-9.99c0-7.72-.6-14.68-9.08-14.68s-9.38,8.02-9.38,15.44v56.75c0,8.32,1.82,15.59,10.14,15.59s10.59-7.57,10.59-15.89v-14.38h-11.05v-15.89h35.41v63.56h-17.86l-1.51-10.14c-3.33,6.96-9.08,11.95-19.82,11.95-25.42,0-33.59-17.1-33.59-42.37Z"/><path class="c" d="M352.44,195.76v-33.29c0-19.07,11.8-28.6,30.57-28.6s30.72,9.53,30.72,28.6v33.29c0,19.07-12.11,28.6-30.72,28.6s-30.57-9.53-30.57-28.6Zm36.92,1.67v-36.62c0-6.66-1.36-10.59-6.2-10.59s-6.36,4.09-6.36,10.59v36.62c0,6.66,1.51,10.59,6.36,10.59s6.2-3.93,6.2-10.59Z"/><path class="b" d="M429.93,120.41h-18.46v-20.13h64.01v20.13h-18.31v102.44h-27.24V120.41Z"/><path class="b" d="M474.96,135.39h24.67v14.53c5.6-9.99,10.59-15.59,18.76-15.59,1.51,0,2.72,.15,3.78,.45v24.51c-2.27-.91-4.99-1.82-8.02-1.82-5.75,0-10.59,3.33-14.53,8.47v56.9h-24.67v-87.46Z"/><path class="b" d="M528.51,203.03c0-21.79,19.52-28.6,36.01-34.35v-8.78c0-4.54-1.06-7.72-5.14-7.72s-5.3,3.03-5.45,6.96l-.6,6.36-23-.91c.91-21.03,10.89-30.72,31.32-30.72,17.71,0,26.48,10.9,26.48,26.33v40.86c0,10.89,.76,17.55,1.51,21.79h-22.09c-.61-4.69-1.66-11.35-1.97-12.41-2.12,7.26-7.57,13.92-16.8,13.92-13.32,0-20.28-11.05-20.28-21.34Zm36.01,.3v-23.91c-8.17,4.69-13.77,9.99-13.77,18.76,0,5.9,2.57,9.53,6.81,9.53,3.03,0,5.3-2.12,6.96-4.39Z"/><path class="b" d="M599.39,103.46h24.82v17.1h-24.82v-17.1Zm.15,31.93h24.67v87.46h-24.67v-87.46Z"/><path class="b" d="M635.75,135.39h24.67v8.78c6.36-6.36,13.32-10.29,21.03-10.29,10.74,0,16.19,8.78,16.19,20.43v68.55h-24.51v-65.07c0-4.24-1.21-6.51-4.99-6.51-1.97,0-4.84,1.21-7.72,3.18v68.4h-24.67v-87.46Z"/></g></svg>