<svg width="39" height="40" viewBox="0 0 39 40" fill="none" xmlns="http://www.w3.org/2000/svg">
<path d="M34.3292 21.9583C34.4125 21.3333 34.4542 20.6875 34.4542 20C34.4542 19.3333 34.4125 18.6667 34.3083 18.0417L38.5375 14.75C38.9125 14.4583 39.0167 13.8958 38.7875 13.4792L34.7875 6.5625C34.5375 6.10417 34.0167 5.95833 33.5583 6.10417L28.5792 8.10417C27.5375 7.3125 26.4333 6.64583 25.2042 6.14583L24.4542 0.854166C24.3708 0.354166 23.9542 0 23.4542 0H15.4542C14.9542 0 14.5583 0.354166 14.475 0.854166L13.725 6.14583C12.4958 6.64583 11.3708 7.33333 10.35 8.10417L5.37083 6.10417C4.9125 5.9375 4.39167 6.10417 4.14167 6.5625L0.162501 13.4792C-0.0874993 13.9167 -0.00416619 14.4583 0.4125 14.75L4.64167 18.0417C4.5375 18.6667 4.45417 19.3542 4.45417 20C4.45417 20.6458 4.49583 21.3333 4.6 21.9583L0.370834 25.25C-0.00416616 25.5417 -0.108333 26.1042 0.120834 26.5208L4.12083 33.4375C4.37083 33.8958 4.89167 34.0417 5.35 33.8958L10.3292 31.8958C11.3708 32.6875 12.475 33.3542 13.7042 33.8542L14.4542 39.1458C14.5583 39.6458 14.9542 40 15.4542 40H23.4542C23.9542 40 24.3708 39.6458 24.4333 39.1458L25.1833 33.8542C26.4125 33.3542 27.5375 32.6875 28.5583 31.8958L33.5375 33.8958C33.9958 34.0625 34.5167 33.8958 34.7667 33.4375L38.7667 26.5208C39.0167 26.0625 38.9125 25.5417 38.5167 25.25L34.3292 21.9583ZM19.4542 27.5C15.3292 27.5 11.9542 24.125 11.9542 20C11.9542 15.875 15.3292 12.5 19.4542 12.5C23.5792 12.5 26.9542 15.875 26.9542 20C26.9542 24.125 23.5792 27.5 19.4542 27.5Z" fill="white"/>
</svg>
